<?xml version="1.0" encoding="UTF-8"?>
<svg width="14px" height="14px" viewBox="0 0 14 14" version="1.1" xmlns="http://www.w3.org/2000/svg" xmlns:xlink="http://www.w3.org/1999/xlink">
    <!-- Generator: Sketch 52.4 (67378) - http://www.bohemiancoding.com/sketch -->
    <title>按钮</title>
    <desc>Created with Sketch.</desc>
    <g id="pc" stroke="none" stroke-width="1" fill="none" fill-rule="evenodd" fill-opacity="0.6">
        <g id="1.1_02ASN查询_箱汇总单_明细" transform="translate(-276.000000, -104.000000)" fill="#000000">
            <g id="按钮" transform="translate(268.000000, 96.000000)">
                <g id="分组" transform="translate(8.000000, 8.000000)">
                    <path d="M9.6330491,2.67088692 L3.21104145,2.67088692 L3.21104145,1 L0,3.27844778 L3.21104145,5.55698456 L3.21104145,3.88609764 L9.6330491,3.88609764 C11.5596213,3.88609764 12.972481,5.4050554 12.972481,7.83545459 C12.972481,10.2658315 11.5596213,11.7848115 9.6330491,11.7848115 L5.77981065,11.7848115 C5.52295442,11.7848115 5.2660982,12.0886698 5.2660982,12.3924614 C5.2660982,12.6962307 5.52295442,13 5.77981065,13 L9.6330491,13 C12.0734278,13 14,10.9493569 14,7.83545459 C14,4.72155222 12.0734278,2.67088692 9.6330491,2.67088692 Z" id="返回-(1)"></path>
                </g>
            </g>
        </g>
    </g>
</svg>